<?xml version="1.0" standalone="no"?>
<!DOCTYPE svg PUBLIC "-//W3C//DTD SVG 20010904//EN"
 "http://www.w3.org/TR/2001/REC-SVG-20010904/DTD/svg10.dtd">
<svg version="1.0" xmlns="http://www.w3.org/2000/svg"
 width="154pt" height="154pt" viewBox="0 0 154 154"
 preserveAspectRatio="xMidYMid meet">
<metadata>
Created by potrace 1.8, written by Peter Selinger 2001-2007
</metadata>
<g transform="translate(0,154) scale(0.080000,-0.080000)"
fill="#000000" stroke="none">
<path d="M0 1172 l0 -748 33 0 c17 0 38 7 45 16 8 8 11 9 7 3 -4 -10 6 -13 40
-13 32 0 44 -3 39 -12 -4 -7 -3 -8 5 -4 6 4 9 11 6 16 -3 5 -1 11 5 15 5 3 10
1 10 -6 0 -10 3 -10 12 -1 7 7 17 8 30 1 12 -7 18 -6 18 1 0 6 5 8 11 4 6 -3
15 0 20 7 7 11 9 11 9 1 0 -9 5 -10 19 -2 14 7 22 7 26 0 4 -6 12 -7 18 -3 19
11 47 11 47 -1 0 -6 4 -4 10 4 5 8 12 11 15 8 15 -15 -8 -27 -43 -23 -28 4
-33 2 -22 -5 12 -9 12 -10 -5 -8 -11 2 -19 -2 -18 -9 2 -7 -3 -10 -11 -7 -8 3
-17 1 -21 -5 -5 -10 1 -13 21 -10 4 0 11 -5 15 -13 17 -26 8 -29 -24 -6 -38
27 -31 26 -53 6 -19 -17 -74 -20 -74 -4 0 4 -11 1 -24 -8 -23 -15 -25 -15 -23
4 1 13 8 20 23 20 12 0 24 3 27 8 2 4 3 2 1 -4 -1 -6 4 -11 12 -11 8 0 13 6
10 12 -3 8 5 12 22 11 14 -1 27 4 29 9 2 6 -10 10 -27 10 -16 1 -30 -3 -30 -9
0 -5 -3 -6 -6 -3 -4 3 -14 2 -24 -3 -10 -5 -20 -6 -24 -2 -4 3 -26 7 -49 8
-23 0 -36 -1 -29 -3 10 -4 10 -8 1 -19 -10 -13 -7 -14 20 -9 29 5 31 4 19 -15
-7 -11 -16 -20 -21 -20 -4 0 -5 5 -2 10 7 12 -15 13 -32 2 -8 -5 -9 -13 -3
-22 8 -13 10 -12 10 3 0 12 4 16 13 10 15 -10 87 -12 81 -2 -4 8 66 3 74 -6
12 -11 -7 -15 -32 -6 -19 8 -25 7 -23 -1 1 -7 -4 -13 -10 -14 -27 -3 -27 -6 1
-15 18 -5 34 -5 41 1 7 6 15 7 18 3 4 -3 7 -2 7 3 0 18 49 12 55 -7 4 -10 11
-19 16 -19 6 0 6 7 0 18 -8 15 -6 18 9 17 25 -2 39 -15 16 -15 -9 0 -14 -5
-11 -10 4 -6 12 -7 18 -3 7 4 15 8 19 8 3 0 10 4 15 9 5 5 2 6 -6 1 -10 -6
-12 -4 -6 4 5 9 10 10 18 2 16 -16 32 -14 18 2 -8 10 -7 14 4 14 8 0 11 -5 8
-11 -4 -6 0 -5 9 2 8 7 22 10 30 7 17 -7 21 23 5 43 -5 6 -5 12 0 12 5 0 9 9
10 20 1 11 -1 19 -5 19 -21 -3 -31 3 -26 16 7 17 40 20 50 4 4 -8 0 -9 -15 -4
-12 4 -21 2 -21 -4 0 -6 3 -10 8 -10 24 4 34 -2 24 -14 -8 -10 -6 -16 9 -26
12 -7 18 -15 15 -18 -3 -3 -14 0 -23 8 -16 13 -17 12 -5 -3 9 -11 10 -18 2
-23 -6 -3 -8 -11 -4 -16 3 -6 11 -3 18 7 9 12 15 14 20 6 4 -7 2 -12 -4 -12
-7 0 -9 -7 -6 -16 4 -10 2 -13 -6 -8 -7 4 -8 3 -4 -5 4 -6 12 -9 17 -5 5 3 6
11 2 17 -4 7 0 6 10 -2 17 -13 14 -36 -4 -26 -5 4 -9 2 -9 -3 0 -16 13 -22 25
-12 8 7 12 5 12 -3 0 -16 -29 -19 -38 -4 -4 5 -9 4 -14 -3 -4 -7 1 -13 14 -17
12 -3 21 -9 21 -14 0 -12 -14 -11 -27 2 -8 8 -13 8 -17 0 -4 -6 -2 -11 4 -11
6 0 8 -5 4 -12 -5 -8 -2 -9 12 -4 10 5 24 9 29 9 14 0 39 27 26 27 -11 0 -9
19 3 39 6 9 5 12 -1 8 -6 -4 -13 0 -17 8 -6 17 10 30 17 15 3 -6 4 -5 3 2 -2
7 -8 14 -14 14 -25 3 -26 6 -4 12 13 4 23 11 22 16 -1 5 4 13 12 18 9 6 6 7
-10 3 -15 -4 -24 -1 -28 10 -6 14 -7 14 -19 -1 -11 -15 -12 -15 -12 0 0 9 5
16 11 16 6 1 0 7 -14 15 -33 18 -32 28 5 36 47 10 77 10 70 -1 -3 -5 -12 -7
-19 -4 -8 3 -17 1 -20 -4 -3 -5 6 -8 20 -6 14 1 23 0 20 -4 -10 -9 -46 -10
-52 0 -7 12 -24 10 -24 -3 0 -5 4 -8 9 -5 5 3 11 -1 15 -9 4 -11 11 -13 29 -6
17 7 29 6 38 -2 11 -10 11 -9 0 6 -11 14 -11 17 0 17 9 0 10 3 4 8 -5 4 -10
14 -10 22 0 8 -6 16 -12 16 -7 1 -14 2 -15 4 -12 9 -40 6 -44 -5 -7 -16 -42
-26 -50 -14 -3 5 -9 7 -13 4 -5 -2 -16 4 -26 15 -10 11 -14 20 -10 20 5 0 -2
11 -14 24 -40 43 -15 76 62 81 43 3 58 12 38 24 -7 5 -12 12 -12 17 1 5 -4 9
-9 9 -6 0 -14 6 -19 13 -4 7 -14 12 -22 10 -8 -2 -13 4 -13 14 1 11 -4 15 -15
11 -9 -4 -13 -3 -9 2 4 4 4 13 -1 19 -12 15 -40 107 -41 131 -1 86 3 135 11
135 5 0 5 7 2 17 -4 10 -2 14 4 10 12 -8 25 17 15 27 -12 13 -10 36 4 36 9 0
12 5 9 10 -4 6 5 26 19 44 14 19 22 37 18 41 -4 5 -2 6 3 3 6 -3 20 5 33 18
12 13 20 24 16 24 -17 0 107 109 146 128 61 30 105 56 105 62 0 3 8 16 18 30
20 29 24 75 5 64 -10 -5 -10 -4 -1 6 7 8 9 20 3 35 -5 13 -6 26 -3 29 4 3 0 6
-8 6 -8 0 -20 9 -27 20 -7 12 -8 20 -2 20 5 0 10 -4 10 -10 0 -5 4 -10 8 -10
4 0 8 9 8 20 0 13 -5 19 -13 16 -7 -3 -13 -1 -13 3 0 5 6 12 13 14 7 3 4 6 -7
6 -15 1 -16 4 -7 15 14 17 -1 31 -21 21 -7 -4 -4 1 6 9 20 16 20 16 0 16 -16
0 -17 2 -4 10 13 9 13 10 0 10 -13 0 -13 1 0 10 9 6 10 10 3 10 -6 0 -14 8
-18 18 -3 9 -17 26 -32 36 -16 12 -23 14 -18 5 7 -12 6 -12 -9 1 -11 9 -14 16
-7 18 6 2 -4 19 -23 38 l-34 34 -140 0 c-129 0 -142 -2 -186 -25 -25 -13 -46
-20 -46 -14 0 6 -9 9 -20 6 -11 -3 -20 -1 -20 4 0 5 -9 9 -21 9 -11 0 -17 5
-14 10 4 6 -20 10 -64 10 l-71 0 0 -748z m617 698 c8 -12 9 -21 3 -25 -6 -4
-8 -10 -6 -14 3 -4 -5 -7 -17 -6 -12 1 -25 -2 -28 -7 -3 -5 -9 -2 -12 7 -5 10
-3 14 4 9 7 -4 10 -1 7 7 -5 13 18 49 31 49 3 0 12 -9 18 -20z m-158 -219 c12
-16 21 -33 21 -38 1 -13 45 -60 69 -73 17 -8 31 -9 53 -1 39 14 38 14 38 -3 0
-8 -15 -19 -34 -26 -41 -13 -78 0 -119 45 -16 17 -28 24 -27 15 9 -63 -31
-110 -92 -110 -32 0 -39 -3 -34 -16 7 -19 -14 -62 -48 -93 l-25 -24 27 -26
c34 -32 62 -83 62 -109 0 -31 -74 -106 -97 -98 -16 6 -13 12 20 41 53 47 53
86 2 136 -25 24 -59 49 -67 49 -4 0 -8 7 -8 15 0 8 6 15 13 15 7 0 29 11 50
25 31 22 37 31 37 61 0 25 -7 41 -22 54 -34 27 -15 35 40 18 66 -22 100 -14
110 26 5 17 5 47 0 66 -18 80 -5 102 31 51z m-44 -1231 c5 8 11 8 21 -1 21
-18 17 -30 -10 -25 -13 2 -34 -3 -46 -11 -24 -17 -29 -15 -35 15 -2 14 1 19
10 16 7 -3 16 0 20 6 5 8 10 8 20 0 10 -8 15 -8 20 0z m15 -42 c0 -4 4 -7 9
-5 5 1 10 -2 10 -8 1 -5 -10 -11 -25 -12 -14 -1 -36 -9 -49 -17 -13 -9 -26
-12 -29 -7 -3 4 -17 7 -32 5 -20 -2 -25 1 -21 15 2 10 -1 18 -8 18 -7 0 -11
-6 -8 -13 6 -15 -13 -28 -22 -14 -9 14 12 39 29 36 7 -1 25 -9 39 -19 16 -10
28 -13 32 -7 4 6 11 8 16 5 5 -4 9 1 9 10 0 13 4 14 23 4 19 -11 20 -10 10 3
-10 12 -10 15 2 15 8 0 15 -4 15 -9z"/>
<path d="M582 1867 c-7 -8 -7 -18 -2 -27 7 -11 10 -12 10 -2 0 7 4 11 9 7 16
-9 22 12 7 24 -10 8 -16 8 -24 -2z"/>
<path d="M950 1910 c0 -6 4 -9 9 -6 5 4 7 -3 4 -14 -3 -11 -1 -20 5 -20 6 0 9
-13 7 -30 -2 -18 0 -28 5 -25 6 3 8 0 5 -7 -11 -31 -13 -68 -4 -73 14 -9 11
-27 -3 -19 -10 5 -10 4 -1 -6 6 -7 9 -19 6 -27 -5 -12 -1 -11 15 3 25 21 27
25 10 20 -7 -1 -10 -1 -6 1 4 2 4 12 1 21 -4 14 -3 15 6 2 5 -8 18 -15 28 -15
9 0 23 -11 30 -25 12 -24 13 -24 13 -3 0 12 -5 25 -10 28 -8 5 -8 11 0 20 11
13 8 84 -4 103 -3 4 -7 20 -10 35 -3 18 -1 24 8 21 7 -3 13 1 13 9 0 10 -17
15 -64 16 -41 1 -63 -2 -63 -9z"/>
<path d="M1416 1895 c-4 -14 -5 -26 -4 -28 2 -2 -3 -11 -11 -20 -8 -10 -9 -17
-3 -17 6 0 8 -10 5 -22 -3 -13 -5 -33 -6 -45 -1 -13 -5 -23 -9 -23 -4 0 -8 -5
-8 -11 0 -5 4 -8 8 -5 4 2 8 -4 8 -14 0 -10 -3 -17 -7 -14 -8 5 -18 -54 -10
-61 15 -15 9 -49 -10 -63 -21 -15 -21 -16 -3 -30 15 -12 16 -14 2 -9 -9 3 -22
-1 -30 -10 -11 -14 -11 -16 3 -11 10 4 16 1 16 -8 0 -9 -6 -13 -15 -9 -12 4
-12 3 -3 -9 9 -11 8 -15 -4 -20 -8 -3 -15 -11 -14 -18 0 -10 2 -10 6 0 2 6 8
12 12 12 10 0 6 -44 -5 -61 -4 -7 -3 -10 3 -6 6 4 19 -1 29 -9 10 -9 13 -13 7
-9 -19 9 -16 -6 5 -22 9 -8 11 -11 3 -7 -10 5 -12 3 -7 -5 5 -7 14 -10 21 -7
7 2 12 -3 11 -12 0 -9 5 -16 12 -14 6 1 12 -5 12 -13 0 -8 7 -15 15 -15 8 0
21 -16 30 -36 8 -19 19 -33 25 -29 5 3 10 1 10 -5 0 -6 7 -18 15 -26 14 -14
19 -11 16 9 -1 5 3 6 9 2 6 -3 8 -9 6 -13 -4 -7 26 -39 31 -34 2 1 3 0 3 -3 0
-3 0 -8 0 -12 0 -3 -10 3 -23 15 -16 15 -27 18 -37 12 -8 -5 -10 -10 -4 -10 6
0 16 -10 23 -22 6 -13 9 -15 6 -5 -3 11 -1 16 6 12 5 -4 8 -20 5 -36 -3 -19
-1 -27 7 -22 6 4 8 0 4 -10 -3 -10 -3 -17 1 -17 7 0 12 -24 15 -67 0 -7 3 -13
6 -13 3 0 7 -14 8 -30 1 -17 -2 -28 -6 -25 -8 4 -8 -20 -1 -50 5 -21 0 -46 -9
-41 -5 4 -7 -4 -3 -16 4 -16 2 -19 -8 -13 -8 5 -11 4 -7 -2 4 -6 0 -16 -7 -22
-9 -7 -13 -23 -10 -39 3 -20 2 -23 -5 -12 -5 8 -7 18 -5 22 3 4 0 8 -6 8 -6 0
-8 -11 -6 -26 4 -23 3 -24 -11 -12 -10 7 -14 8 -10 1 4 -6 2 -13 -3 -15 -6 -2
-12 -13 -13 -25 -1 -17 -5 -20 -19 -12 -14 8 -16 6 -11 -7 4 -12 3 -15 -5 -10
-7 4 -12 2 -12 -4 0 -6 -4 -8 -10 -5 -5 3 -10 1 -10 -4 0 -6 -4 -11 -10 -11
-5 0 -7 8 -4 18 3 9 -1 6 -9 -7 -11 -18 -16 -20 -20 -10 -4 12 -6 12 -6 0 -1
-11 -4 -11 -16 -1 -11 9 -15 9 -15 1 0 -7 -8 -11 -17 -10 -32 3 -36 -1 -22
-18 10 -11 10 -14 2 -9 -8 4 -13 1 -13 -9 0 -10 -5 -13 -12 -9 -8 4 -10 3 -5
-2 5 -5 14 -9 20 -9 7 0 11 -10 9 -23 -2 -13 2 -22 10 -22 10 0 9 -3 -2 -11
-12 -9 -12 -10 3 -5 10 3 21 6 23 6 3 0 3 3 1 7 -3 5 5 8 18 8 13 0 21 -3 18
-7 -2 -5 -10 -8 -17 -8 -8 0 -19 -6 -25 -14 -10 -11 -7 -17 10 -29 14 -11 19
-22 15 -33 -5 -14 -4 -15 9 -4 13 10 15 9 16 -9 3 -42 5 -46 20 -43 10 1 16
-5 16 -15 0 -10 1 -25 2 -34 1 -20 38 -32 38 -13 0 7 -5 12 -11 11 -6 -1 -10
6 -8 16 2 9 -3 17 -9 17 -7 0 -9 3 -6 6 4 4 18 -1 32 -10 14 -9 25 -12 25 -6
0 5 -4 10 -10 10 -5 0 -10 5 -10 11 0 5 5 7 12 3 7 -5 8 -3 3 5 -5 9 -10 10
-18 2 -17 -17 -66 16 -67 44 0 5 7 -1 16 -13 8 -12 20 -22 26 -22 6 0 3 9 -6
19 -10 11 -15 25 -10 32 5 8 2 11 -8 7 -8 -4 -21 -2 -29 4 -12 8 -12 9 1 5 8
-2 23 0 33 5 12 6 19 5 23 -7 3 -8 10 -13 15 -10 4 3 3 17 -3 31 -9 19 -9 27
1 37 11 10 12 7 6 -12 -5 -16 -4 -21 4 -17 7 5 9 1 5 -8 -3 -9 -1 -16 5 -16 6
0 11 4 11 9 0 6 9 8 21 6 15 -3 19 0 15 10 -3 8 -1 15 5 15 6 0 9 -8 7 -18 -2
-9 -10 -16 -16 -15 -22 5 -12 -16 18 -39 38 -28 94 -35 86 -10 -5 13 -3 12 9
-2 14 -19 15 -19 15 -1 0 18 1 18 16 -1 15 -19 15 -18 9 3 -3 12 -1 24 4 28 7
3 8 0 5 -9 -4 -10 -1 -16 10 -16 10 0 13 6 9 18 -5 15 -4 14 9 -2 10 -13 17
-15 22 -8 4 6 14 8 24 5 15 -6 15 -5 3 10 -8 10 -11 20 -7 24 3 3 6 1 6 -6 0
-7 5 -9 12 -5 6 4 8 3 5 -3 -4 -6 1 -14 10 -17 9 -4 20 -1 25 6 6 10 8 10 8
-2 0 -12 2 -12 9 -2 4 8 11 13 15 13 3 -1 7 -1 9 0 1 1 15 2 30 3 19 2 25 0
17 -8 -14 -14 -13 -29 3 -20 8 5 8 2 -2 -9 -11 -14 -11 -17 0 -17 11 0 11 -2
-1 -9 -8 -6 -18 -7 -24 -4 -5 3 -6 2 -3 -4 5 -8 -10 -10 -56 -4 -5 1 -5 7 -1
14 6 9 5 9 -7 0 -13 -10 -16 -10 -16 2 0 8 4 12 9 9 4 -3 8 -1 8 4 0 6 -8 13
-17 16 -10 4 -14 4 -11 0 12 -12 -12 -46 -28 -40 -10 4 -12 2 -8 -6 5 -7 3 -8
-6 -3 -8 5 -11 4 -6 -3 4 -6 14 -9 24 -6 13 5 14 4 3 -4 -9 -6 -10 -12 -3 -16
6 -4 8 -14 5 -24 -5 -14 -2 -13 11 3 10 11 15 15 12 9 -3 -6 1 -11 9 -11 8 0
15 4 15 9 0 4 -6 8 -12 8 -9 0 -8 4 2 10 8 5 10 10 4 10 -5 0 -15 -5 -21 -11
-9 -9 -12 -7 -10 9 1 13 8 20 19 19 10 -1 18 -4 18 -7 0 -11 68 -11 75 0 7 11
25 4 25 -10 0 -5 -7 -7 -15 -3 -9 3 -15 2 -14 -3 1 -5 1 -18 0 -29 -1 -16 -3
-17 -11 -5 -6 9 -5 17 3 22 7 4 3 6 -10 6 -17 -2 -20 -6 -13 -24 5 -12 6 -25
2 -29 -4 -4 4 -4 18 0 14 5 30 8 36 8 9 0 12 211 13 814 l2 813 -249 0 -250 0
-6 -25z m208 -1424 c-2 -2 -14 4 -26 15 -17 16 -20 16 -15 3 3 -9 0 -22 -6
-29 -9 -10 -7 -11 10 -6 12 4 24 2 28 -5 6 -8 9 -8 15 1 5 8 9 8 13 -3 6 -15
-15 -18 -29 -4 -4 4 -12 7 -18 7 -6 0 -5 -5 2 -12 7 -7 12 -17 12 -22 0 -6 -5
-4 -10 4 -6 10 -10 11 -10 3 0 -7 -5 -13 -11 -13 -8 0 -7 5 2 16 11 13 9 14
-14 9 -15 -4 -27 -3 -27 1 0 14 16 36 26 35 5 0 9 5 10 12 2 26 5 27 28 10 13
-10 22 -20 20 -22z m153 25 c4 -4 4 -7 -2 -6 -21 5 -36 0 -30 -9 3 -5 1 -12
-5 -16 -6 -4 -8 -10 -5 -15 3 -5 1 -12 -5 -15 -6 -4 -9 -1 -8 6 3 15 -31 19
-49 5 -7 -4 -13 -6 -13 -2 0 3 0 9 0 13 0 5 17 9 37 9 49 2 48 1 32 21 -10 11
-10 14 -1 9 6 -4 12 -3 12 3 0 11 25 9 37 -3z"/>
<path d="M699 1907 c-6 -13 -5 -36 2 -31 5 3 9 0 9 -6 0 -6 5 -8 10 -5 9 5 12
-2 9 -21 -1 -3 11 -18 25 -33 15 -15 23 -31 19 -36 -5 -5 0 -3 10 4 10 8 17 9
17 3 0 -6 -8 -16 -17 -22 -17 -11 -17 -11 -1 -6 10 3 20 1 23 -4 4 -6 0 -10
-7 -10 -10 0 -9 -3 1 -9 12 -8 13 -12 1 -26 -7 -9 -9 -15 -4 -14 21 4 28 -2
14 -11 -11 -7 -11 -10 -2 -10 7 0 10 -5 6 -12 -4 -7 -3 -8 4 -4 7 4 12 1 12
-9 0 -9 -4 -14 -9 -11 -12 8 -8 -13 7 -40 6 -12 8 -25 4 -29 -4 -5 -1 -5 6 -1
6 4 12 2 12 -3 0 -6 -5 -11 -11 -11 -8 0 -8 -4 0 -13 8 -10 7 -17 -2 -26 -9
-10 -8 -11 6 -5 10 3 17 14 15 23 -1 9 1 22 5 29 5 7 3 12 -4 12 -8 0 -7 5 2
17 12 15 12 16 -3 10 -10 -3 -20 -1 -24 5 -4 6 -3 8 3 5 10 -6 25 5 35 25 1 3
-6 17 -18 30 -30 33 -38 58 -16 52 9 -3 6 2 -8 11 l-25 16 25 -6 c24 -6 24 -5
4 7 -11 7 -20 23 -20 36 0 12 -3 22 -8 21 -4 0 -14 8 -22 18 -8 12 -13 13 -14
5 0 -7 -5 -10 -12 -6 -7 5 -5 11 8 21 13 10 14 14 4 11 -8 -1 -25 7 -37 19
-19 19 -20 22 -5 25 13 3 12 5 -5 10 -13 3 -23 5 -24 5z"/>
<path d="M1304 1875 c3 -8 1 -15 -3 -15 -19 0 -18 -26 1 -27 13 -1 18 3 14 12
-3 8 -1 17 4 20 16 10 12 25 -6 25 -10 0 -14 -6 -10 -15z"/>
<path d="M1196 1843 c2 -3 -4 -12 -12 -20 -18 -18 -14 -35 8 -39 20 -3 45 13
35 23 -5 4 -11 3 -15 -2 -10 -14 -32 -17 -32 -5 0 5 8 13 18 19 12 7 14 13 6
19 -6 5 -10 7 -8 5z"/>
<path d="M1270 1800 c-11 -11 -23 -19 -27 -17 -5 1 -9 -9 -10 -23 -2 -22 -1
-23 5 -4 4 13 14 20 25 18 26 -4 31 -10 23 -30 -5 -13 -9 -14 -21 -4 -10 9
-15 9 -15 1 0 -10 13 -15 33 -12 17 3 5 -18 -14 -24 -12 -4 -18 -10 -13 -14
15 -11 15 -31 -1 -37 -8 -3 -12 -10 -9 -15 10 -16 -9 -9 -22 9 -18 23 -17 37
1 22 9 -7 18 -10 22 -6 3 3 2 6 -3 6 -18 0 -14 40 4 41 12 0 11 3 -5 9 -20 8
-27 19 -25 40 0 3 -9 7 -20 7 -20 2 -20 1 -2 -13 18 -14 18 -15 -6 -10 -19 5
-18 2 7 -9 34 -15 37 -49 5 -38 -15 4 -15 3 -2 -6 12 -8 12 -11 1 -11 -10 0
-11 -3 -2 -14 10 -11 8 -17 -6 -25 -17 -10 -17 -10 2 -11 17 0 17 -2 5 -10
-13 -8 -13 -10 -1 -10 12 0 12 -3 3 -12 -16 -16 -15 -31 1 -25 6 2 20 -2 30
-11 9 -8 17 -10 17 -5 0 17 -28 35 -41 27 -7 -4 -9 -3 -5 4 3 6 15 10 26 9 10
-1 16 -5 13 -11 -3 -5 -2 -6 4 -3 12 7 11 -19 -1 -46 -8 -17 -1 -36 9 -25 6 6
16 44 17 66 1 6 5 12 9 12 4 0 8 8 8 18 0 9 3 40 6 67 3 28 6 66 6 85 1 19 6
38 11 41 5 3 2 9 -6 12 -10 4 -25 -2 -36 -13z m16 -152 c4 -7 3 -8 -5 -4 -8 5
-10 0 -7 -17 6 -32 -3 -41 -22 -24 -8 6 -17 11 -19 10 -10 -8 -19 0 -20 18 -2
21 -1 21 13 3 14 -18 15 -18 30 4 19 25 20 26 30 10z"/>
<path d="M1025 1690 c-3 -11 -11 -17 -17 -14 -6 4 -8 2 -4 -4 3 -5 1 -12 -5
-14 -6 -2 -12 -26 -12 -53 0 -28 1 -48 4 -46 2 2 15 -2 29 -9 21 -11 23 -11
14 1 -6 8 -10 25 -8 39 4 25 4 25 -12 -2 -8 -16 -17 -28 -20 -28 -2 0 0 8 5
19 6 10 7 21 4 25 -7 6 12 10 36 6 12 -1 13 1 3 13 -8 9 -22 13 -35 9 -13 -3
-18 -1 -14 4 5 5 14 9 20 9 7 1 11 7 9 15 -3 11 0 11 12 1 9 -7 13 -17 11 -22
-3 -4 3 -12 12 -18 12 -7 13 -10 4 -11 -11 0 -11 -3 0 -17 11 -13 11 -17 1
-21 -10 -3 -10 -7 -2 -17 8 -10 8 -19 1 -34 -15 -27 -14 -28 12 -27 23 1 23 3
10 71 -3 17 -6 40 -6 52 -1 12 -5 19 -9 17 -4 -3 -8 0 -8 5 0 6 8 11 17 11 22
0 11 10 -17 15 -31 6 -36 13 -20 28 9 8 11 8 6 0 -3 -6 -1 -15 5 -18 7 -5 10
-1 7 10 -5 26 -25 29 -33 5z"/>
<path d="M1039 1598 c-6 -25 -6 -39 2 -44 16 -10 10 -23 -11 -21 -11 1 -20 5
-20 9 0 4 -6 5 -14 2 -16 -6 -10 -40 9 -48 13 -5 55 28 55 44 0 5 -5 12 -10
15 -8 5 -8 11 0 20 8 9 8 15 0 20 -5 3 -10 5 -11 3z"/>
<path d="M1215 1551 c4 -13 3 -21 -2 -18 -13 8 -11 -37 2 -50 7 -7 15 -6 23 4
9 9 9 13 1 13 -7 0 -9 10 -7 25 3 15 -1 30 -10 37 -13 11 -14 9 -7 -11z"/>
<path d="M765 1131 c-3 -6 -10 -9 -14 -7 -12 8 -51 -23 -51 -40 0 -8 -4 -13
-8 -10 -4 2 -8 -4 -8 -14 0 -10 5 -18 11 -17 5 1 9 -3 8 -9 -1 -6 10 -9 25 -6
29 4 68 55 63 82 -4 22 -18 33 -26 21z"/>
<path d="M1020 1126 c0 -7 -10 -20 -22 -28 -20 -13 -21 -17 -9 -32 12 -14 12
-16 -4 -10 -14 6 -13 2 5 -19 17 -20 27 -24 40 -17 10 5 20 6 24 3 3 -4 18 4
33 18 20 18 24 19 13 4 -14 -18 -13 -19 1 -8 9 7 15 23 13 35 -1 13 -3 26 -3
31 -1 4 -7 7 -15 7 -8 0 -17 8 -20 17 -5 12 -9 14 -18 5 -15 -15 -32 -16 -23
-2 3 6 1 10 -4 10 -6 0 -11 -6 -11 -14z"/>
<path d="M759 828 c-11 -8 -11 -11 -1 -15 10 -4 10 -8 0 -21 -8 -10 -9 -13 -1
-9 7 4 14 -1 18 -12 4 -13 11 -18 22 -14 12 5 14 3 8 -8 -4 -8 2 -4 14 9 12
12 25 22 29 22 4 0 12 10 18 23 8 18 7 23 -5 24 -9 0 -32 3 -52 6 -20 3 -42 1
-50 -5z"/>
<path d="M324 442 c5 -8 -2 -12 -19 -12 -14 0 -24 -4 -21 -9 6 -8 -17 -23 -38
-25 -13 -1 -20 -26 -8 -26 5 0 15 7 22 15 7 9 15 13 17 11 3 -3 10 0 17 5 6 5
20 16 30 23 15 10 16 15 6 21 -9 5 -11 4 -6 -3z"/>
<path d="M1472 432 c-14 -14 -22 -17 -25 -9 -2 7 -8 9 -12 5 -5 -5 -1 -16 8
-26 10 -10 14 -23 10 -27 -5 -5 0 -3 9 4 23 17 37 6 34 -27 -5 -37 -4 -36 -20
-23 -10 8 -16 9 -21 1 -4 -6 -1 -9 6 -8 7 2 13 -6 14 -17 0 -11 -4 -20 -10
-20 -17 0 -36 -16 -30 -25 3 -4 -3 -11 -12 -14 -15 -6 -15 -8 -3 -16 8 -6 20
-10 25 -10 6 0 3 5 -5 10 -11 7 -5 8 19 4 23 -5 36 -3 41 7 5 7 13 10 17 5 10
-9 -26 -38 -39 -30 -5 3 -15 0 -23 -6 -8 -6 -19 -9 -24 -6 -5 4 -13 1 -17 -6
-4 -7 -4 -10 1 -6 4 4 16 3 26 -3 15 -7 19 -7 17 3 -2 8 7 13 22 13 28 0 60
32 52 53 -2 7 -13 11 -23 9 -10 -3 -20 1 -23 8 -5 14 23 13 45 -1 7 -4 10 -1
7 7 -3 8 -14 14 -25 14 -12 0 -25 3 -29 8 -4 4 5 7 19 7 15 0 27 5 27 11 0 5
-4 8 -9 5 -7 -5 -8 8 -2 32 1 1 10 -2 21 -8 16 -8 18 -8 14 4 -3 8 0 17 7 22
9 5 10 2 6 -9 -4 -11 -2 -14 8 -10 8 3 12 10 8 16 -3 6 -1 7 6 3 6 -4 9 -12 6
-17 -7 -10 8 -12 19 -2 11 12 46 13 46 2 0 -5 -4 -8 -9 -4 -5 3 -13 0 -17 -6
-4 -8 -3 -9 5 -5 6 4 11 4 10 -1 -4 -21 3 -23 23 -9 33 23 54 20 54 -8 0 -18
-5 -23 -18 -21 -10 2 -18 0 -18 -6 0 -5 -11 -7 -25 -5 -20 4 -28 -1 -40 -23
-8 -16 -12 -31 -9 -33 2 -3 -7 -4 -20 -4 -14 1 -29 5 -33 10 -4 4 -3 7 2 6 21
-5 48 0 41 7 -10 10 -46 11 -52 1 -9 -15 16 -37 37 -33 10 2 19 1 19 -3 0 -4
9 -8 19 -9 24 -2 34 22 20 49 -9 16 -8 19 3 12 7 -5 29 -9 47 -11 23 -1 30 1
21 7 -8 5 -19 6 -25 3 -5 -4 -6 -2 -2 2 11 12 37 15 37 4 0 -4 20 -7 45 -6 25
1 45 6 45 10 0 5 4 6 9 2 5 -3 12 -1 16 5 3 5 1 10 -5 10 -6 0 -9 4 -6 9 8 13
-4 42 -15 35 -5 -3 -7 -10 -4 -15 4 -5 1 -17 -4 -26 -6 -11 -11 -13 -11 -5 0
7 -4 10 -10 7 -5 -3 -19 -8 -30 -10 -17 -3 -18 -1 -10 14 7 14 5 23 -10 36
-15 13 -17 21 -9 31 6 7 17 10 25 7 8 -3 14 1 14 10 0 18 -27 30 -35 16 -4 -5
-11 -7 -16 -4 -5 4 -9 1 -9 -5 0 -6 -4 -9 -9 -5 -5 3 -12 1 -15 -3 -3 -5 -17
-8 -31 -7 -14 2 -27 -1 -31 -6 -3 -5 -10 -9 -15 -9 -6 0 -8 4 -5 9 4 5 -2 8
-11 6 -10 -1 -24 2 -30 8 -7 5 -13 7 -13 3 0 -3 -13 8 -28 25 l-29 32 -21 -21z
m54 -27 c9 -14 21 -22 28 -18 6 4 5 -1 -3 -10 -8 -10 -16 -15 -19 -12 -3 3
-10 1 -16 -4 -7 -6 -11 -2 -11 14 0 13 4 21 9 18 5 -3 6 0 4 8 -3 8 -11 13
-17 12 -6 -2 -11 2 -11 7 0 18 19 10 36 -15z m229 -5 c4 -6 3 -9 -2 -8 -4 2
-30 -13 -58 -32 -27 -18 -44 -26 -37 -17 8 9 10 22 6 28 -4 7 -3 9 4 5 6 -3
13 -2 17 4 4 6 10 8 14 5 5 -2 17 2 27 10 23 17 21 17 29 5z"/>
<path d="M1845 424 c-10 -8 -22 -11 -26 -8 -5 3 -6 -2 -3 -10 3 -9 10 -16 16
-16 5 0 7 -4 4 -8 -3 -5 1 -9 9 -9 8 0 11 5 8 10 -4 6 2 8 14 5 12 -3 20 0 20
8 0 17 -3 17 -27 4 -13 -7 -21 -7 -26 2 -4 6 -3 8 3 5 6 -4 21 1 33 11 27 22
4 27 -25 6z"/>
<path d="M1095 419 c-5 -8 -5 -11 0 -7 4 4 13 0 20 -8 10 -14 14 -15 33 -3 26
17 29 28 5 24 -10 -1 -17 -8 -15 -14 3 -16 -9 -13 -23 6 -10 13 -13 14 -20 2z"/>
<path d="M30 409 c0 -4 -6 -6 -13 -3 -7 2 -13 -4 -14 -16 -1 -11 4 -20 13 -20
8 0 14 -4 14 -10 0 -5 -5 -9 -11 -7 -6 1 -14 -4 -17 -12 -3 -10 0 -12 12 -8
21 8 21 -2 -1 -20 -10 -8 -13 -12 -6 -8 16 7 37 -31 22 -40 -6 -4 -13 -4 -16
-1 -4 3 -1 6 6 6 7 0 9 5 6 10 -12 20 -21 10 -21 -24 0 -26 4 -32 16 -28 13 5
13 3 2 -10 -10 -13 -11 -22 -2 -38 6 -11 15 -18 21 -15 5 4 9 1 9 -6 0 -8 4
-8 15 1 8 7 15 8 15 4 0 -15 -38 -34 -55 -27 -11 4 -13 8 -5 13 8 5 7 10 -3
18 -11 9 -13 -2 -13 -63 1 -67 3 -75 20 -75 14 0 16 -3 8 -13 -8 -10 -6 -13 7
-13 13 0 17 6 13 20 -4 16 -1 18 16 14 12 -4 25 -2 28 3 3 5 21 8 39 6 19 -2
37 -2 40 1 3 3 18 7 33 8 15 1 41 5 57 9 17 4 40 7 53 8 12 1 22 7 22 15 0 7
-4 11 -10 7 -28 -17 -104 47 -82 70 4 4 0 5 -8 3 -19 -7 -52 10 -45 23 4 5 11
9 16 9 6 0 8 -4 4 -9 -3 -5 0 -13 6 -17 8 -4 9 -3 5 4 -5 8 -1 10 11 6 16 -6
16 -5 -1 8 -16 13 -16 15 -2 15 9 0 17 -4 17 -9 7 -48 25 -62 73 -59 17 1 18
2 1 27 -9 15 -13 24 -8 21 11 -7 40 10 31 18 -3 4 -16 1 -28 -5 -12 -6 -28 -9
-35 -6 -9 3 -12 0 -8 -9 3 -8 9 -13 13 -10 4 3 13 -2 20 -10 9 -10 9 -15 1
-15 -6 0 -11 6 -11 13 0 9 -2 9 -8 -1 -6 -8 -13 -1 -25 23 -9 19 -22 34 -29
33 -7 -2 -13 5 -13 14 0 10 -6 23 -13 30 -10 10 -11 6 -6 -21 5 -24 4 -32 -4
-27 -6 4 -8 14 -5 24 4 14 2 13 -11 -3 -17 -20 -17 -20 -7 2 6 12 8 30 5 40
-3 10 -2 14 3 8 11 -15 39 -12 35 4 -1 7 2 10 8 6 5 -3 19 -1 31 6 12 6 19 7
16 2 -3 -4 1 -19 10 -33 8 -14 12 -17 9 -7 -4 11 -2 16 5 12 6 -4 8 -14 5 -22
-5 -12 -1 -14 20 -9 20 5 25 4 21 -7 -3 -7 1 -14 8 -14 7 0 12 10 11 23 -1 16
-7 21 -23 19 -14 -1 -20 2 -16 12 3 9 0 11 -10 7 -10 -3 -20 2 -26 15 -9 17
-16 19 -36 11 -14 -5 -25 -7 -25 -4 0 4 -6 2 -13 -5 -13 -10 -47 -8 -68 4 -7
5 -6 12 3 23 7 9 8 13 2 9 -5 -3 -31 -7 -57 -8 -26 -2 -47 -6 -47 -11 0 -4 -5
-8 -10 -8 -7 0 -7 6 0 20 6 11 7 20 3 20 -4 0 -1 6 7 13 23 18 23 44 0 50 -11
3 -20 1 -20 -4z m59 -96 c-3 -20 2 -34 11 -28 5 3 8 11 6 18 -1 7 -1 9 1 4 3
-4 9 -5 14 -1 5 3 18 -1 29 -9 18 -13 19 -15 5 -21 -10 -4 -14 -2 -9 5 4 7 2
10 -5 8 -19 -7 -9 -24 12 -22 31 5 18 -14 -15 -22 -29 -6 -30 -8 -13 -15 11
-4 22 -3 23 1 5 14 22 11 20 -3 -2 -7 3 -13 10 -14 6 -1 15 -2 18 -3 4 0 1 -7
-5 -14 -6 -8 -8 -17 -4 -20 3 -4 0 -13 -7 -22 -9 -11 -9 -15 -1 -15 8 0 9 -5
1 -19 -5 -11 -7 -26 -4 -34 6 -17 -12 -32 -21 -18 -3 6 -15 7 -28 2 -12 -4
-33 -7 -47 -6 -14 1 -32 -1 -42 -6 -11 -6 -18 -4 -21 6 -4 9 -1 12 10 8 8 -3
19 0 24 8 8 12 10 12 18 -1 12 -17 23 -10 12 8 -4 7 -18 14 -30 17 -18 3 -22
1 -17 -13 5 -14 3 -13 -9 2 -8 11 -15 25 -15 30 0 8 3 8 8 1 9 -13 21 -13 47
2 21 12 26 13 50 13 13 0 14 4 5 20 -6 11 -16 20 -22 20 -7 0 -6 -5 2 -15 7
-9 8 -15 2 -15 -5 0 -13 7 -16 16 -3 8 -10 13 -16 9 -5 -3 -19 -1 -30 5 -16 8
-18 15 -11 29 7 12 6 22 -2 30 -9 10 -5 12 23 7 29 -4 32 -3 19 7 -8 7 -19 21
-23 32 -4 11 -4 16 0 13 3 -4 13 -1 21 7 16 17 24 19 22 8z m140 -184 c-13 -8
-12 -10 10 -13 5 0 13 -5 18 -10 4 -5 3 -6 -4 -2 -6 3 -14 2 -18 -4 -4 -6 -10
-8 -15 -5 -5 3 -13 -3 -19 -12 -9 -15 -10 -12 -9 15 1 18 8 32 15 32 7 0 13 5
13 11 0 5 5 7 11 3 8 -4 7 -9 -2 -15z"/>
<path d="M65 291 c-4 -7 0 -20 9 -30 22 -24 20 -32 -8 -27 -18 3 -23 0 -21
-12 1 -10 -2 -20 -7 -23 -5 -3 0 -9 11 -12 12 -3 21 -1 21 3 0 15 33 3 51 -19
10 -12 20 -17 24 -11 3 5 2 10 -2 10 -5 0 -9 9 -10 21 -2 17 1 18 13 8 8 -6
17 -9 21 -5 10 10 -4 18 -37 21 -17 1 -34 6 -38 10 -4 5 -1 5 6 0 12 -6 12 -3
2 15 -11 20 -10 21 12 15 19 -7 21 -6 11 7 -10 11 -10 17 0 28 6 8 2 6 -10 -3
-20 -17 -22 -17 -31 -1 -7 12 -11 13 -17 5z"/>
<path d="M155 171 c7 -12 -21 -41 -41 -42 -8 -1 -18 -3 -24 -4 -5 -1 -14 -3
-19 -4 -5 0 0 -12 12 -25 12 -13 26 -21 32 -18 15 10 28 9 43 -1 8 -6 12 -6
12 2 0 6 -5 11 -11 11 -8 0 -8 5 1 15 7 8 10 21 7 30 -4 8 -2 17 4 20 11 7 2
25 -12 25 -6 0 -8 -4 -4 -9z m-5 -52 c0 8 3 11 6 8 4 -4 1 -13 -6 -22 -9 -10
-17 -12 -30 -5 -9 5 -20 7 -23 4 -3 -3 -8 -1 -11 5 -4 6 3 8 19 5 16 -3 25 0
25 8 0 9 3 8 10 -2 8 -12 10 -12 10 -1z"/>
<path d="M990 409 c0 -5 -5 -7 -11 -3 -8 4 -7 0 1 -15 6 -12 15 -19 20 -16 4
3 10 1 12 -4 1 -5 12 -3 22 5 12 8 15 14 7 14 -11 0 -11 3 0 18 13 15 12 16
-3 3 -10 -7 -15 -17 -13 -22 3 -4 -4 -7 -15 -6 -14 1 -18 6 -14 19 3 10 3 18
0 18 -3 0 -6 -5 -6 -11z"/>
<path d="M917 392 c4 -9 2 -13 -4 -9 -6 4 -18 -6 -27 -21 l-17 -27 20 24 c12
13 21 19 21 15 0 -5 7 -1 14 9 9 12 16 14 21 8 3 -6 12 -11 18 -11 7 0 3 6 -8
12 -30 18 -44 18 -38 0z"/>
<path d="M1615 349 c-4 -6 -14 -8 -22 -5 -9 4 -22 1 -29 -5 -11 -9 -18 -8 -31
2 -16 13 -17 12 -5 -3 8 -9 11 -22 8 -27 -4 -5 -1 -13 5 -16 5 -4 8 -14 5 -24
-5 -12 -2 -11 9 3 10 13 11 23 5 31 -14 17 0 27 18 12 13 -10 15 -9 8 8 -5 15
-4 17 5 8 6 -6 18 -9 27 -6 10 4 13 2 8 -5 -4 -7 -15 -12 -24 -12 -15 -1 -15
-2 1 -11 12 -7 22 -7 30 -1 7 5 20 8 30 7 10 -2 21 3 24 11 3 8 9 14 15 14 5
0 6 -5 2 -12 -5 -7 -3 -8 5 -3 9 5 10 10 2 18 -7 7 -18 5 -34 -6 -23 -15 -26
-15 -41 2 -9 10 -13 21 -9 24 3 4 4 7 0 7 -3 0 -9 -5 -12 -11z"/>
<path d="M1048 342 c-1 -4 -18 -18 -36 -31 -24 -17 -30 -27 -23 -34 8 -8 15
-7 24 2 10 10 8 11 -8 6 -17 -6 -16 -3 5 13 13 11 27 19 30 17 3 -2 11 5 18
16 7 10 8 19 3 19 -5 0 -11 -4 -13 -8z"/>
<path d="M1235 330 c-3 -5 -3 -10 1 -10 4 0 -1 -7 -12 -15 -10 -8 -14 -15 -9
-15 6 -1 1 -6 -10 -11 -17 -7 -17 -8 -2 -6 10 1 18 7 19 12 1 6 8 15 17 22 9
7 12 13 6 13 -5 0 -3 5 5 10 9 6 10 10 3 10 -6 0 -15 -4 -18 -10z"/>
<path d="M469 328 c-9 -44 -21 -59 -35 -47 -8 6 -14 8 -14 4 0 -5 -8 -1 -17 7
-15 12 -22 12 -40 3 -13 -6 -20 -15 -16 -18 3 -4 13 -1 21 6 13 10 15 9 10
-10 -4 -13 -2 -26 3 -29 6 -3 5 -11 -2 -20 -6 -7 -16 -11 -22 -7 -6 4 -7 1 -2
-7 5 -8 1 -18 -10 -27 -11 -7 -14 -13 -8 -13 16 0 9 -31 -9 -41 -10 -6 -28 -5
-45 2 -26 9 -27 9 -12 -6 9 -9 28 -17 43 -19 14 -1 33 -11 40 -22 8 -10 17
-16 21 -12 3 3 -3 15 -15 26 -23 22 -18 47 7 38 9 -4 13 -1 10 6 -2 7 -9 12
-14 11 -5 -1 -10 5 -10 13 0 11 4 11 19 -3 23 -21 36 -10 14 12 -9 9 -16 22
-15 28 0 8 2 8 6 -1 7 -18 23 -4 17 16 -4 10 -2 13 3 7 4 -5 15 -11 23 -13 8
-1 4 7 -10 18 -22 18 -23 20 -5 18 11 -2 23 -9 26 -17 6 -17 36 -23 45 -10 3
5 0 9 -7 9 -7 0 -4 7 7 15 10 8 15 15 10 15 -5 0 -4 6 2 13 7 8 6 19 -3 37 -8
14 -15 22 -16 18z m-19 -85 c0 -8 -9 -4 -21 8 -17 17 -23 18 -37 7 -15 -11
-15 -11 -5 3 10 12 10 18 0 28 -6 7 5 2 25 -11 20 -12 37 -29 38 -35z"/>
<path d="M1090 321 c0 -5 -9 -11 -21 -14 -12 -3 -18 -10 -14 -16 3 -6 2 -11
-4 -11 -5 0 -12 5 -14 10 -3 6 -4 5 -3 -2 2 -7 9 -13 17 -13 8 0 13 5 12 11
-1 7 9 15 22 18 24 6 35 26 15 26 -5 0 -10 -4 -10 -9z"/>
<path d="M1567 310 c6 -7 9 -18 7 -25 -3 -8 4 -12 20 -12 14 0 26 0 26 1 0 1
-15 13 -32 26 -18 12 -28 17 -21 10z"/>
<path d="M237 279 c-14 -8 -16 -14 -6 -25 6 -8 8 -14 3 -14 -5 0 4 -8 19 -19
30 -20 72 -17 81 5 3 8 0 11 -9 8 -14 -6 -63 21 -57 31 12 23 -3 30 -31 14z"/>
<path d="M1136 276 c4 -9 -2 -13 -18 -12 -18 1 -23 -4 -23 -24 0 -26 26 -36
31 -12 1 7 0 8 -3 2 -8 -16 -19 -12 -20 9 -1 13 5 18 20 17 13 -1 23 6 25 17
2 9 -1 17 -7 17 -6 0 -8 -6 -5 -14z"/>
<path d="M956 259 c3 -5 9 -7 14 -4 4 3 13 -2 20 -10 16 -19 30 -19 30 0 0 9
6 12 16 8 11 -4 12 -9 5 -16 -6 -6 -11 -16 -11 -21 0 -6 5 -3 11 6 6 10 16 15
27 12 9 -4 4 3 -13 15 -26 18 -32 19 -41 6 -8 -11 -14 -11 -22 -3 -14 14 -44
20 -36 7z"/>
<path d="M1735 249 c-4 -6 -13 -8 -19 -6 -7 3 -13 -1 -13 -8 0 -9 6 -11 16 -6
9 5 26 7 39 6 27 -2 28 1 3 15 -14 7 -22 7 -26 -1z"/>
<path d="M546 214 c-10 -7 -23 -11 -27 -8 -5 3 -9 0 -9 -7 0 -8 -4 -8 -12 -2
-19 15 -48 12 -48 -4 0 -8 -5 -11 -10 -8 -6 4 -8 10 -5 15 6 10 -15 8 -33 -4
-10 -6 -10 -11 -2 -22 9 -10 7 -19 -8 -39 -13 -17 -22 -21 -25 -13 -2 7 -8 10
-11 6 -4 -3 2 -16 13 -27 21 -21 37 -28 27 -12 -3 5 1 12 10 15 8 3 13 10 10
14 -3 5 6 14 19 20 14 7 25 16 25 21 0 6 9 8 20 6 11 -2 18 0 15 4 -3 5 2 11
10 15 8 3 14 0 12 -5 -1 -6 16 -13 37 -14 25 -2 34 0 25 6 -16 9 -19 31 -6 40
5 4 5 9 0 12 -4 3 -17 -1 -27 -9z m-62 -35 c-3 -5 -9 -7 -14 -4 -5 3 -12 0
-17 -7 -4 -7 -17 -18 -28 -25 -11 -6 -19 -16 -17 -23 1 -7 -3 -8 -10 -4 -8 5
2 20 32 45 24 21 48 36 52 33 5 -3 6 -10 2 -15z"/>
<path d="M1147 219 c-9 -6 -15 -15 -11 -20 3 -6 -2 -9 -12 -7 -15 2 -18 -3
-17 -22 3 -23 2 -24 -11 -7 -8 11 -12 25 -10 32 3 7 1 15 -4 19 -5 3 -8 -8 -7
-25 1 -16 -1 -32 -6 -34 -11 -7 -18 20 -13 47 l5 23 -11 -24 c-10 -23 -11 -23
-24 -6 -12 16 -17 17 -37 7 -22 -11 -22 -12 -2 -7 14 4 29 -1 42 -14 25 -25
26 -28 6 -28 -8 0 -17 9 -21 19 -4 13 -9 16 -17 10 -7 -5 -40 -8 -75 -7 -48 2
-64 0 -71 -13 -7 -13 -10 -12 -15 6 -4 12 -12 22 -19 22 -8 0 -8 -3 1 -12 21
-21 13 -32 -10 -12 -19 15 -20 16 -9 2 8 -11 9 -18 3 -18 -6 0 -20 13 -32 30
-12 16 -27 30 -33 30 -7 0 -4 -5 6 -11 9 -5 17 -15 17 -21 0 -7 -4 -7 -14 1
-11 9 -15 8 -20 -5 -3 -9 -4 -19 -1 -24 8 -13 -32 -19 -45 -6 -7 6 -4 -2 6
-19 13 -19 14 -26 5 -20 -11 6 -13 4 -9 -7 5 -11 0 -14 -19 -12 -19 2 -23 -1
-19 -13 5 -12 3 -13 -6 -6 -12 10 -33 10 -124 0 -20 -3 -41 -12 -46 -21 -5 -9
-14 -16 -20 -16 -7 0 -7 5 1 14 10 11 9 14 -1 12 -7 -1 -19 -5 -25 -9 -9 -5
-13 -2 -13 8 0 12 -5 15 -17 10 -10 -4 -33 -8 -50 -9 -18 0 -35 -6 -37 -13 -4
-8 3 -12 19 -11 14 1 25 6 25 11 0 4 5 5 10 2 17 -11 11 -24 -10 -20 -11 2
-22 0 -25 -6 -9 -14 -19 -11 -43 11 -20 19 -28 15 -23 -12 1 -11 -17 -10 -23
1 -4 5 0 11 6 14 7 2 9 8 5 13 -4 5 -11 4 -15 -2 -4 -6 -24 -10 -44 -9 -20 1
-43 -2 -50 -6 -8 -5 4 -7 29 -5 48 5 55 0 21 -13 -17 -6 -8 -8 34 -8 31 1 54
5 52 9 -3 4 0 8 5 8 6 0 11 -4 11 -8 0 -5 33 -8 74 -8 60 1 73 4 69 16 -3 11
-1 10 10 -2 18 -22 31 -23 23 -2 -4 10 -2 13 6 8 6 -4 8 -3 5 3 -4 6 0 16 9
24 12 10 18 10 30 -3 14 -14 14 -16 0 -21 -11 -4 -13 -1 -9 10 4 10 2 14 -7
11 -7 -2 -14 -13 -15 -24 -1 -18 6 -19 124 -19 69 0 131 3 136 7 6 4 17 3 25
-3 22 -13 30 -11 24 9 -5 15 -4 15 8 2 15 -18 103 -26 92 -9 -4 8 -1 8 13 1
27 -15 683 -13 702 2 11 8 13 8 8 0 -4 -8 2 -11 18 -10 14 0 25 5 25 9 0 4 9
3 19 -3 14 -7 21 -6 24 3 4 8 6 8 6 -2 1 -11 4 -10 14 4 11 14 16 15 22 5 6
-9 4 -11 -6 -5 -8 5 -11 4 -6 0 4 -5 16 -9 27 -10 19 -2 19 -1 3 19 -15 17
-12 16 16 -4 19 -13 31 -19 27 -12 -4 7 3 14 19 18 13 3 23 10 20 15 -3 4 4 6
16 4 29 -6 33 -11 14 -19 -9 -3 -13 -2 -10 4 3 6 4 10 1 10 -3 0 -10 -9 -16
-21 -11 -19 -10 -20 9 -9 12 6 26 8 31 5 6 -4 9 -1 8 7 -2 7 2 12 9 11 12 -3
11 43 -2 55 -5 4 -5 -1 -2 -10 6 -17 -4 -23 -28 -18 -46 9 -97 11 -92 3 3 -5
-5 -9 -18 -9 -13 0 -22 3 -19 7 2 5 -13 8 -33 8 -63 0 -72 2 -79 13 -4 7 -2 8
4 4 8 -5 10 -1 6 9 -6 13 -9 12 -23 -7 -9 -13 -15 -26 -14 -30 2 -4 -5 -4 -14
-1 -11 4 -13 8 -5 11 7 2 17 13 23 25 9 18 9 20 -2 10 -7 -7 -32 -13 -56 -13
-28 0 -43 -4 -43 -12 0 -7 -5 -5 -11 5 -9 15 -13 16 -27 5 -12 -10 -14 -10 -8
0 10 17 -4 15 -28 -5 -12 -10 -15 -11 -8 -3 17 20 15 35 -3 20 -10 -8 -15 -9
-15 -1 0 6 -16 10 -39 8 -35 -2 -37 -3 -26 -21 8 -10 11 -25 8 -34 -4 -10 -2
-13 5 -8 6 3 14 1 18 -6 4 -7 4 -10 -1 -6 -4 4 -14 3 -21 -3 -15 -12 -58 6
-49 21 8 14 -16 23 -28 11 -8 -8 -8 -14 2 -23 10 -11 11 -10 6 5 -4 9 -3 17 2
17 5 0 9 -11 9 -25 0 -19 -3 -22 -13 -13 -8 6 -16 8 -20 5 -3 -3 -18 0 -33 8
-21 11 -30 11 -39 2 -10 -9 -11 -8 -5 6 4 12 2 16 -7 14 -8 -2 -11 -2 -6 0 4
3 4 9 1 14 -3 6 2 21 10 34 16 24 16 25 -9 25 -14 0 -25 -5 -25 -11 0 -5 6 -7
13 -3 8 5 8 2 -2 -9 -7 -9 -16 -17 -19 -17 -3 0 -2 3 1 6 9 9 -11 44 -26 44
-7 0 -8 -3 -2 -8 6 -4 11 -16 13 -27 2 -17 0 -16 -12 5 -16 27 -24 29 -37 8
-7 -10 -9 -10 -9 0 0 7 -5 10 -10 7 -6 -4 -7 -12 -3 -18 5 -9 3 -9 -8 0 -12
10 -18 10 -29 0 -9 -8 -11 -9 -6 0 3 6 2 14 -3 17 -5 3 -12 -2 -15 -11 -5 -12
-10 -13 -18 -5 -6 6 -17 8 -24 5 -10 -4 -13 1 -10 18 3 13 5 27 5 32 1 4 5 7
10 7 11 0 9 -19 -4 -40 -7 -13 -6 -13 7 -2 22 18 61 25 51 9 -5 -9 -3 -9 8 0
12 10 18 10 29 0 7 -6 10 -7 7 -1 -4 7 4 10 21 9 15 -1 35 2 46 8 12 6 16 5
13 -1 -4 -5 8 -8 26 -8 40 2 50 -11 30 -41 -13 -20 -14 -26 -3 -36 10 -10 11
-9 6 3 -4 8 0 6 10 -5 15 -18 16 -18 10 -2 -4 13 -2 17 6 14 7 -2 12 -12 10
-21 -3 -15 -1 -15 17 1 25 21 26 24 4 16 -10 -4 -14 -2 -10 4 5 7 -2 10 -18 8
-16 -1 -24 2 -22 9 5 14 37 15 58 2 22 -13 50 -1 43 19 -3 8 -14 15 -23 15
-12 0 -10 5 9 21 16 14 19 19 8 15 -19 -6 -25 9 -8 17 6 3 5 4 -2 3 -7 -2 -13
-11 -13 -21 0 -10 -6 -20 -13 -23 -7 -2 -12 0 -11 5 3 19 -2 33 -12 33 -8 0
-8 -4 0 -14 9 -11 8 -15 -4 -20 -9 -3 -13 -11 -9 -17 4 -8 3 -9 -4 -5 -7 4 -9
17 -6 31 3 12 1 26 -4 29 -6 4 -8 -3 -5 -16 4 -19 3 -20 -6 -8 -10 13 -11 13
-11 0 0 -13 -1 -13 -10 0 -6 9 -5 17 3 22 9 6 7 12 -5 22 -10 7 -15 16 -11 19
9 10 1 8 -20 -4z m22 -18 c11 -7 7 -13 -16 -25 -28 -14 -43 -13 -43 5 0 4 8 6
18 5 9 0 16 5 15 12 -3 14 6 15 26 3z m-362 -60 c6 6 10 4 10 -6 0 -8 -3 -13
-5 -10 -3 3 -12 -1 -20 -8 -13 -10 -14 -9 -8 2 6 9 5 12 -5 9 -8 -3 -13 -11
-11 -17 4 -18 -12 -13 -25 8 -11 17 -9 21 7 26 11 4 18 12 14 18 -3 7 3 2 14
-10 12 -14 23 -18 29 -12z m89 18 c4 -8 9 -7 15 2 6 11 11 11 21 1 9 -9 8 -12
-7 -13 -11 0 -14 -3 -7 -6 6 -2 12 -9 12 -14 0 -6 -4 -7 -10 -4 -9 6 -14 -8
-11 -27 0 -5 -3 -8 -9 -8 -13 0 -13 6 0 30 8 15 6 21 -9 30 -22 11 -40 -3 -20
-16 8 -5 9 -3 4 6 -5 9 -4 11 3 6 17 -10 15 -27 -2 -24 -8 2 -14 -1 -13 -7 1
-5 6 -9 10 -7 5 1 6 -2 2 -8 -9 -15 -45 11 -45 33 0 10 5 15 10 12 6 -3 13 1
16 9 7 18 30 21 40 5z m354 -30 c0 -5 4 -8 9 -5 4 3 17 -1 27 -9 18 -14 18
-14 -3 -15 -12 0 -25 5 -28 10 -4 6 -10 8 -14 6 -4 -3 -8 1 -8 9 0 8 4 15 9
15 4 0 8 -5 8 -11z m-841 -97 c8 -15 6 -18 -13 -18 -17 0 -22 5 -18 18 6 23
19 23 31 0z"/>
<path d="M1533 218 c-17 -22 -26 -44 -9 -24 9 11 20 15 27 10 7 -4 25 -9 39
-10 21 -3 22 -1 7 7 -9 6 -21 7 -26 4 -6 -3 -14 2 -19 10 -7 13 -10 14 -19 3z"/>
<path d="M1830 211 c0 -6 -9 -8 -20 -6 -11 2 -22 0 -25 -4 -2 -5 -16 -7 -29
-6 -14 2 -31 -4 -38 -13 -12 -15 -11 -16 5 -3 14 11 17 11 17 0 0 -11 2 -11 9
0 8 12 12 13 26 1 14 -11 16 -11 13 0 -4 17 41 21 61 6 12 -9 12 -7 2 12 -12
23 -21 28 -21 13z"/>
<path d="M1806 125 c4 -10 14 -14 28 -10 21 6 21 6 2 -9 -25 -20 -8 -20 18 -1
15 11 16 15 5 17 -30 3 -34 4 -46 11 -9 6 -11 3 -7 -8z"/>
</g>
</svg>
